<?xml version="1.0" encoding="utf-8"?>
<!-- Svg Vector Icons : http://www.onlinewebfonts.com/icon -->
<!DOCTYPE svg PUBLIC "-//W3C//DTD SVG 1.1//EN" "http://www.w3.org/Graphics/SVG/1.1/DTD/svg11.dtd">
<svg version="1.1" xmlns="http://www.w3.org/2000/svg" xmlns:xlink="http://www.w3.org/1999/xlink" x="0px" y="0px" viewBox="0 0 256 256" enable-background="new 0 0 256 256" xml:space="preserve">
<metadata> Svg Vector Icons : http://www.onlinewebfonts.com/icon </metadata>
<g><g><path fill="#000000" d="M128,173.9c-6.4,0-11.6,5.2-11.6,11.6c0,6.4,5.2,11.6,11.6,11.6c6.4,0,11.6-5.2,11.6-11.6C139.6,179.1,134.4,173.9,128,173.9z M128,10C62.8,10,10,62.8,10,128c0,65.2,52.8,118,118,118c65.2,0,118-52.8,118-118C246,62.8,193.2,10,128,10z M128,58.9c6.4,0,11.6,5.2,11.6,11.6s-5.2,11.6-11.6,11.6c-6.4,0-11.6-5.2-11.6-11.6C116.4,64.1,121.6,58.9,128,58.9z M127.8,243c-0.2,0-0.3,0-0.5,0c-6,0-11.9-0.5-17.6-1.4C54.8,232.8,13,185.3,13,128c0-57.3,41.9-104.8,96.7-113.6C86.1,22,69.1,44.1,69.1,70.2c0,29.3,21.5,53.5,49.6,57.8c2.9,0.4,5.9,0.7,9,0.7c31.6,0,57.2,25.6,57.2,57.2C184.8,217.4,159.3,243,127.8,243z"/></g></g>
</svg>